<?xml version="1.0" encoding="UTF-8" standalone="no"?>
<!-- Created with Inkscape (http://www.inkscape.org/) -->

<svg
   xmlns:dc="http://purl.org/dc/elements/1.1/"
   xmlns:cc="http://creativecommons.org/ns#"
   xmlns:rdf="http://www.w3.org/1999/02/22-rdf-syntax-ns#"
   xmlns:svg="http://www.w3.org/2000/svg"
   xmlns="http://www.w3.org/2000/svg"
   xmlns:sodipodi="http://sodipodi.sourceforge.net/DTD/sodipodi-0.dtd"
   xmlns:inkscape="http://www.inkscape.org/namespaces/inkscape"
   width="640"
   height="400"
   id="svg2"
   version="1.1"
   inkscape:version="0.48.2 r9819"
   sodipodi:docname="game.svg">
  <defs
     id="defs4" />
  <sodipodi:namedview
     id="base"
     pagecolor="#ffffff"
     bordercolor="#666666"
     borderopacity="1.0"
     inkscape:pageopacity="0.0"
     inkscape:pageshadow="2"
     inkscape:zoom="1.979899"
     inkscape:cx="-4.2426315"
     inkscape:cy="51.384184"
     inkscape:document-units="px"
     inkscape:current-layer="level1"
     showgrid="false"
     inkscape:window-width="858"
     inkscape:window-height="730"
     inkscape:window-x="0"
     inkscape:window-y="0"
     inkscape:window-maximized="0" />
  <metadata
     id="metadata7">
    <rdf:RDF>
      <cc:Work
         rdf:about="">
        <dc:format>image/svg+xml</dc:format>
        <dc:type
           rdf:resource="http://purl.org/dc/dcmitype/StillImage" />
        <dc:title />
      </cc:Work>
    </rdf:RDF>
  </metadata>
  <g
     inkscape:groupmode="layer"
     id="staticBg"
     inkscape:label="background">
    <rect
       style="fill:#34495e;fill-opacity:1;stroke:#ffffff;stroke-width:0.31799999;stroke-linecap:round;stroke-linejoin:round;stroke-miterlimit:4;stroke-opacity:1;stroke-dasharray:none"
       id="rect3984"
       width="640"
       height="400"
       x="0"
       y="0"
       ry="6.5582571e-017"
       transform="matrix(2.4820994,0,0,0.99537791,-702.9968,0.03602056)"
       fillScreen="true"
       class="Box" />
    <rect
       style="fill:#95a5a6;fill-opacity:1"
       id="rect3760-8-5-0-4"
       width="285.71429"
       height="105.71429"
       x="198.57143"
       y="275.71429"
       ry="4.0782439e-017"
       transform="matrix(1.0247487,0,0,0.55089163,-572.73563,197.56417)" />
  </g>
  <g
     inkscape:groupmode="layer"
     id="ParalaxCam1"
     inkscape:label="ParalaxCam1">
    <rect
       style="fill:#3e5266;fill-opacity:1"
       id="rect5271-9"
       width="311.42856"
       height="198.57143"
       x="-625.71429"
       y="838.57141"
       ry="1.7850191e-016"
       class="Box"
       transform="matrix(0.31833524,0,0,0.84254577,557.30755,-473.57484)" />
    <rect
       style="fill:#3e5266;fill-opacity:1"
       id="rect5271-9-7"
       width="311.42856"
       height="198.57143"
       x="-625.71429"
       y="838.57141"
       ry="1.7850191e-016"
       class="Box"
       transform="matrix(0.32157885,0,0,0.84254577,259.73346,-692.22317)" />
    <rect
       style="fill:#3e5266;fill-opacity:1"
       id="rect5271-9-6"
       width="311.42856"
       height="198.57143"
       x="-625.71429"
       y="838.57141"
       ry="1.7850191e-016"
       class="Box"
       transform="matrix(0.31833524,0,0,1.4123009,206.18611,-1017.4705)" />
    <rect
       style="fill:#3e5266;fill-opacity:1"
       id="rect5271-9-3"
       width="311.42856"
       height="198.57143"
       x="-625.71429"
       y="838.57141"
       ry="1.7850191e-016"
       class="Box"
       transform="matrix(0.31833524,0,0,0.84254577,254.67343,-396.24847)" />
    <rect
       style="fill:#3e5266;fill-opacity:1"
       id="rect5271-9-6-6"
       width="311.42856"
       height="198.57143"
       x="-625.71429"
       y="838.57141"
       ry="1.7850191e-016"
       class="Box"
       transform="matrix(0.22102696,0,0,0.93920067,-353.71643,-823.7827)" />
    <rect
       style="fill:#3e5266;fill-opacity:1"
       id="rect5271-9-6-1"
       width="311.42856"
       height="198.57143"
       x="-625.71429"
       y="838.57141"
       ry="1.7850191e-016"
       class="Box"
       transform="matrix(0.0945262,0,0,1.4123009,-380.34182,-1074.039)" />
    <rect
       style="fill:#3e5266;fill-opacity:1"
       id="rect5271-9-6-5"
       width="311.42856"
       height="198.57143"
       x="-625.71429"
       y="838.57141"
       ry="1.7850191e-016"
       class="Box"
       transform="matrix(0.37023299,0,0,1.4275622,-308.84342,-1067.6439)" />
    <rect
       style="fill:#3e5266;fill-opacity:1"
       id="rect5271-9-6-4"
       width="311.42856"
       height="198.57143"
       x="-625.71429"
       y="838.57141"
       ry="1.7850191e-016"
       class="Box"
       transform="matrix(0.15939839,0,0,1.0714653,-75.090408,-967.02097)" />
    <rect
       style="fill:#3e5266;fill-opacity:1"
       id="rect5271-9-6-2"
       width="311.42856"
       height="198.57143"
       x="-625.71429"
       y="838.57141"
       ry="1.7850191e-016"
       class="Box"
       transform="matrix(0.31833524,0,0,1.4123009,-63.52462,-1257.8868)" />
    <rect
       style="fill:#3e5266;fill-opacity:1"
       id="rect5271-9-6-0"
       width="311.42856"
       height="198.57143"
       x="-625.71429"
       y="838.57141"
       ry="1.7850191e-016"
       class="Box"
       transform="matrix(0.72054279,0,0,1.1477717,1005.3558,-1056.2632)" />
    <rect
       style="fill:#3e5266;fill-opacity:1"
       id="rect5271-9-6-9"
       width="311.42856"
       height="198.57143"
       x="-625.71429"
       y="838.57141"
       ry="1.7850191e-016"
       class="Box"
       transform="matrix(1.349803,0,0,1.9922302,1609.2046,-1665.407)" />
  </g>
  <g
     inkscape:groupmode="layer"
     id="ParalaxCam2"
     inkscape:label="ParalaxCam2">
    <rect
       style="fill:#2f3b4a;fill-opacity:1"
       id="rect5271-5-06-9-46-61-0"
       width="311.42856"
       height="198.57143"
       x="-625.71429"
       y="838.57141"
       ry="1.7850191e-016"
       class="Box"
       transform="matrix(0.3675356,0,0,0.30519946,590.69235,85.734777)" />
    <rect
       style="fill:#2f3b4a;fill-opacity:1"
       id="rect5271-5-06-9-46-61-0-3"
       width="311.42856"
       height="198.57143"
       x="-625.71429"
       y="838.57141"
       ry="1.7850191e-016"
       class="Box"
       transform="matrix(0.3675356,0,0,0.30519946,542.45757,41.035528)" />
    <rect
       style="fill:#2f3b4a;fill-opacity:1"
       id="rect5271-5-06-9-46-61-0-7"
       width="311.42856"
       height="198.57143"
       x="-625.71429"
       y="838.57141"
       ry="1.7850191e-016"
       class="Box"
       transform="matrix(0.3675356,0,0,0.26450267,300.02096,95.365747)" />
    <rect
       style="fill:#2f3b4a;fill-opacity:1"
       id="rect5271-5-06-9-46-61-0-2"
       width="311.42856"
       height="198.57143"
       x="-625.71429"
       y="838.57141"
       ry="1.7850191e-016"
       class="Box"
       transform="matrix(0.46484388,0,0,0.64094801,27.557798,-260.71666)" />
    <rect
       style="fill:#2f3b4a;fill-opacity:1"
       id="rect5271-5-06-9-46-61-0-6"
       width="311.42856"
       height="198.57143"
       x="-625.71429"
       y="838.57141"
       ry="1.7850191e-016"
       class="Box"
       transform="matrix(0.43240778,0,0,1.2005289,-413.46647,-828.45509)" />
    <rect
       style="fill:#2f3b4a;fill-opacity:1"
       id="rect5271-5-06-9-46-61-0-0"
       width="311.42856"
       height="198.57143"
       x="-625.71429"
       y="838.57141"
       ry="1.7850191e-016"
       class="Box"
       transform="matrix(0.20535514,0,0,0.59007702,-454.01623,-191.79373)" />
    <rect
       style="fill:#2f3b4a;fill-opacity:1"
       id="rect5271-5-06-9-46-61-0-1"
       width="311.42856"
       height="198.57143"
       x="-625.71429"
       y="838.57141"
       ry="1.7850191e-016"
       class="Box"
       transform="matrix(0.34807394,0,0,0.7019932,-326.32923,-570.50646)" />
    <rect
       style="fill:#2f3b4a;fill-opacity:1"
       id="rect5271-5-06-9-46-61-0-65"
       width="311.42856"
       height="198.57143"
       x="-625.71429"
       y="838.57141"
       ry="1.7850191e-016"
       class="Box"
       transform="matrix(0.3675356,0,0,1.3938387,-269.70508,-1393.1049)" />
    <rect
       style="fill:#2f3b4a;fill-opacity:1"
       id="rect5271-5-06-9-46-61-0-75"
       width="311.42856"
       height="198.57143"
       x="-625.71429"
       y="838.57141"
       ry="1.7850191e-016"
       class="Box"
       transform="matrix(0.07561077,0,0,0.80373518,377.97877,-686.12895)" />
    <rect
       style="fill:#2f3b4a;fill-opacity:1"
       id="rect5271-5-06-9-46-61-0-4"
       width="311.42856"
       height="198.57143"
       x="-625.71429"
       y="838.57141"
       ry="1.7850191e-016"
       class="Box"
       transform="matrix(0.33509951,0,0,0.54938022,554.48672,-452.63111)" />
  </g>
  <g
     inkscape:groupmode="layer"
     id="ParalaxCam3"
     inkscape:label="ParalaxCam3" />
  <g
     inkscape:groupmode="layer"
     id="level1"
     inkscape:label="Level1"
     level="1">
    <rect
       style="fill:#95a5a6;fill-opacity:1"
       id="rect3760-7-0"
       width="285.71429"
       height="105.71429"
       x="198.57143"
       y="275.71429"
       ry="4.0782439e-017"
       transform="matrix(0.49104079,0,0,1.0156672,82.297793,-257.77849)" />
    <rect
       style="fill:#95a5a6;fill-opacity:1"
       id="rect3760-8"
       width="285.71429"
       height="105.71429"
       x="198.57143"
       y="275.71429"
       ry="4.0782439e-017"
       transform="matrix(0.93282486,0,0,0.47444767,-242.73163,-119.54487)" />
    <rect
       style="fill:#95a5a6;fill-opacity:1"
       id="rect3760-74"
       width="285.71429"
       height="105.71429"
       x="198.57143"
       y="275.71429"
       ry="4.0782439e-017"
       transform="matrix(0.65705322,0,0,1.0095555,71.638828,4.9067079)" />
    <rect
       style="fill:#95a5a6;fill-opacity:1"
       id="rect3760-2"
       width="285.71429"
       height="105.71429"
       x="198.57143"
       y="275.71429"
       ry="4.0782439e-017"
       transform="matrix(1.3565002,0,0,5.6073494,-1325.7341,-1552.9419)" />
    <rect
       style="fill:#95a5a6;fill-opacity:1"
       id="rect3760-2-7"
       width="285.71429"
       height="105.71429"
       x="198.57143"
       y="275.71429"
       ry="4.0782439e-017"
       transform="matrix(1.792581,0,0,5.4722143,497.96162,-1498.0134)" />
    <rect
       style="fill:#95a5a6;fill-opacity:1"
       id="rect2985-7"
       width="302.85715"
       height="71.428574"
       x="50"
       y="310"
       ry="8.1564879e-017"
       transform="matrix(0.46681957,0,0,1.7162236,-170.8024,-515.5617)" />
    <rect
       style="fill:#95a5a6;fill-opacity:1"
       id="rect2985-9"
       width="302.85715"
       height="71.428574"
       x="50"
       y="310"
       ry="8.1564879e-017"
       transform="matrix(0.41345303,0,0,1.2636753,-422.6925,-80.307165)" />
    <rect
       style="fill:#95a5a6;fill-opacity:1"
       id="rect3760-7-0-6"
       width="285.71429"
       height="105.71429"
       x="198.57143"
       y="275.71429"
       ry="4.0782439e-017"
       transform="matrix(0.21526915,0,0,1.4361091,270.96298,-468.85439)" />
    <rect
       style="fill:#95a5a6;fill-opacity:1"
       id="rect3760-8-5"
       width="285.71429"
       height="105.71429"
       x="198.57143"
       y="275.71429"
       ry="4.0782439e-017"
       transform="matrix(0.51563187,0,0,0.59628026,-35.135168,176.17386)" />
    <rect
       style="fill:#95a5a6;fill-opacity:1"
       id="rect3760-8-5-0"
       width="285.71429"
       height="105.71429"
       x="198.57143"
       y="275.71429"
       ry="4.0782439e-017"
       transform="matrix(1.0247487,0,0,0.55089163,421.87804,182.62725)" />
    <rect
       style="fill:#95a5a6;fill-opacity:1"
       id="rect3760-8-5-2"
       width="285.71429"
       height="105.71429"
       x="198.57143"
       y="275.71429"
       ry="4.0782439e-017"
       transform="matrix(0.7065507,0,0,1.0095555,-856.41949,-265.06144)" />
    <rect
       style="fill:#95a5a6;fill-opacity:1"
       id="rect2985-9-5"
       width="302.85715"
       height="71.428574"
       x="50"
       y="310"
       ry="8.1564879e-017"
       transform="matrix(7.9955256,0,0,4.7143563,-1455.0232,-1773.2824)" />
    <rect
       style="fill:#95a5a6;fill-opacity:1"
       id="rect2985-9-9"
       width="302.85715"
       height="71.428574"
       x="50"
       y="310"
       ry="8.1564879e-017"
       transform="matrix(5.3632004,0,0,2.7944992,-973.22564,-481.12147)" />
    <rect
       style="fill:#95a5a6;fill-opacity:1"
       id="rect3760-8-5-0-8"
       width="285.71429"
       height="105.71429"
       x="198.57143"
       y="275.71429"
       ry="4.0782439e-017"
       transform="matrix(1.0247487,0,0,0.70377958,522.89331,71.783486)" />
    <rect
       style="fill:#95a5a6;fill-opacity:1"
       id="rect2985-9-2"
       width="302.85715"
       height="71.428574"
       x="50"
       y="310"
       ry="8.1564879e-017"
       transform="matrix(0.45514564,0,0,1.0515433,-308.6096,24.849713)" />
    <rect
       style="fill:#95a5a6;fill-opacity:1"
       id="rect2985-9-0"
       width="302.85715"
       height="71.428574"
       x="50"
       y="310"
       ry="8.1564879e-017"
       transform="matrix(0.44347171,0,0,1.2636753,-695.92449,-53.033046)" />
    <rect
       style="fill:#95a5a6;fill-opacity:1"
       id="rect2985-9-01"
       width="302.85715"
       height="71.428574"
       x="50"
       y="310"
       ry="8.1564879e-017"
       transform="matrix(0.45227589,0,0,1.5283557,-610.50173,-393.68301)" />
    <rect
       style="fill:#95a5a6;fill-opacity:1"
       id="rect2985-9-6"
       width="302.85715"
       height="71.428574"
       x="50"
       y="310"
       ry="8.1564879e-017"
       transform="matrix(0.53352776,0,0,1.2636753,-569.10745,-379.31232)" />
    <rect
       style="fill:#95a5a6;fill-opacity:1"
       id="rect2985-9-1"
       width="302.85715"
       height="71.428574"
       x="50"
       y="310"
       ry="8.1564879e-017"
       transform="matrix(0.66088625,0,0,1.8436753,-185.26422,-300.95631)" />
    <rect
       style="fill:#95a5a6;fill-opacity:1"
       id="rect2985-9-7"
       width="302.85715"
       height="71.428574"
       x="50"
       y="310"
       ry="8.1564879e-017"
       transform="matrix(0.1750372,0,0,0.56367532,-202.40035,147.27225)" />
    <rect
       style="fill:#95a5a6;fill-opacity:1"
       id="rect2985-9-77"
       width="302.85715"
       height="71.428574"
       x="50"
       y="310"
       ry="8.1564879e-017"
       transform="matrix(0.59484851,0,0,0.53867531,443.75194,40.736532)" />
    <rect
       style="fill:#95a5a6;fill-opacity:1"
       id="rect2985-9-73"
       width="302.85715"
       height="71.428574"
       x="50"
       y="310"
       ry="8.1564879e-017"
       transform="matrix(0.31654663,0,0,0.50367532,457.66704,28.729394)" />
    <rect
       style="fill:#95a5a6;fill-opacity:1"
       id="rect2985-9-3"
       width="302.85715"
       height="71.428574"
       x="50"
       y="310"
       ry="8.1564879e-017"
       transform="matrix(0.3731504,0,0,0.46166522,606.26543,-12.533193)" />
    <rect
       style="fill:#95a5a6;fill-opacity:1"
       id="rect2985-9-59"
       width="302.85715"
       height="71.428574"
       x="50"
       y="310"
       ry="8.1564879e-017"
       transform="matrix(0.35899946,0,0,0.52752309,664.11581,-67.509684)" />
    <rect
       style="fill:#95a5a6;fill-opacity:1"
       id="rect3760-8-5-0-80"
       width="285.71429"
       height="105.71429"
       x="198.57143"
       y="275.71429"
       ry="4.0782439e-017"
       transform="matrix(0.28974872,0,0,0.25359433,507.50008,302.39042)" />
    <rect
       style="fill:#95a5a6;fill-opacity:1"
       id="rect3760-8-5-0-1"
       width="285.71429"
       height="105.71429"
       x="198.57143"
       y="275.71429"
       ry="4.0782439e-017"
       transform="matrix(0.42974872,0,0,0.55089163,226.84294,204.70703)" />
    <rect
       style="fill:#95a5a6;fill-opacity:1"
       id="rect3760-8-5-0-5"
       width="285.71429"
       height="105.71429"
       x="198.57143"
       y="275.71429"
       ry="4.0782439e-017"
       transform="matrix(0.26974872,0,0,0.26710785,101.4715,242.95028)" />
    <rect
       style="fill:#95a5a6;fill-opacity:1"
       id="rect3760-8-5-0-0"
       width="285.71429"
       height="105.71429"
       x="198.57143"
       y="275.71429"
       ry="4.0782439e-017"
       transform="matrix(0.34974872,0,0,1.1184592,-94.414201,-6.0651806)" />
    <rect
       style="fill:#95a5a6;fill-opacity:1"
       id="rect3760-8-5-0-9"
       width="285.71429"
       height="105.71429"
       x="198.57143"
       y="275.71429"
       ry="4.0782439e-017"
       transform="matrix(0.53474871,0,0,0.40224298,-161.14991,-54.308413)" />
    <rect
       style="fill:#95a5a6;fill-opacity:1"
       id="rect3760-8-5-0-7"
       width="285.71429"
       height="105.71429"
       x="198.57143"
       y="275.71429"
       ry="4.0782439e-017"
       transform="matrix(1.0247487,0,0,0.55089163,-665.59277,214.70703)" />
    <rect
       style="fill:#95a5a6;fill-opacity:1"
       id="rect2985-9-1-8"
       width="302.85715"
       height="71.428574"
       x="50"
       y="310"
       ry="8.1564879e-017"
       transform="matrix(0.3000372,0,0,1.8436753,-65.793213,-314.52775)" />
    <rect
       style="fill:#bdc3c7;fill-opacity:1"
       id="rect3931-1-2-6-2-12"
       width="163.13963"
       height="7.5761442"
       x="-0.50507629"
       y="364.13959"
       ry="6.5582571e-017"
       transform="matrix(0.04998087,0,0,0.85409336,40.647565,-40.51364)"
       class="Box" />
    <rect
       style="fill:#95a5a6;fill-opacity:1"
       id="rect3760-74-4"
       width="285.71429"
       height="105.71429"
       x="198.57143"
       y="275.71429"
       ry="4.0782439e-017"
       transform="matrix(0.38835265,0,0,1.0095555,153.27848,-10.503001)" />
    <rect
       style="fill:#95a5a6;fill-opacity:1"
       id="rect2985-9-26"
       width="302.85715"
       height="71.428574"
       x="50"
       y="310"
       ry="8.1564879e-017"
       transform="matrix(0.2967137,0,0,1.2636753,-417.36061,-90.913766)" />
  </g>
  <g
     inkscape:groupmode="layer"
     id="levelAdditions"
     inkscape:label="levelAdditions"
     style="fill:#bdc3c7;fill-opacity:1">
    <rect
       style="fill:#bdc3c7;fill-opacity:1"
       id="rect3931-1-2-6"
       width="163.13963"
       height="7.5761442"
       x="-0.50507629"
       y="364.13959"
       ry="6.5582571e-017"
       transform="matrix(0.17236721,0,0,0.85409336,202.23826,-27.794819)"
       class="Box" />
    <rect
       style="fill:#bdc3c7;fill-opacity:1"
       id="rect3931-1-2-6-2"
       width="163.13963"
       height="7.5761442"
       x="-0.50507629"
       y="364.13959"
       ry="6.5582571e-017"
       transform="matrix(0.6227363,0,0,0.85409336,-152.2082,-40.316)"
       class="Box" />
    <rect
       style="fill:#bdc3c7;fill-opacity:1"
       id="rect3931-1-2-6-2-0"
       width="163.13963"
       height="7.5761442"
       x="-0.50507629"
       y="364.13959"
       ry="6.5582571e-017"
       transform="matrix(0.26079166,0,0,0.85409336,-193.81958,11.112571)"
       class="Box" />
    <rect
       style="fill:#bdc3c7;fill-opacity:1"
       id="rect3931-1-2-6-2-0-1"
       width="163.13963"
       height="7.5761442"
       x="-0.50507629"
       y="364.13959"
       ry="6.5582571e-017"
       transform="matrix(0.51435047,0,0,0.85409336,-277.02129,39.326857)"
       class="Box" />
    <rect
       style="fill:#bdc3c7;fill-opacity:1"
       id="rect3931-1-2-6-2-0-6"
       width="163.13963"
       height="7.5761442"
       x="-0.50507629"
       y="364.13959"
       ry="6.5582571e-017"
       transform="matrix(0.22289522,0,0,0.85409336,-312.981,0.75542824)"
       class="Box" />
    <rect
       style="fill:#bdc3c7;fill-opacity:1"
       id="rect3931-1-2-6-2-0-4"
       width="163.13963"
       height="7.5761442"
       x="-0.50507629"
       y="364.13959"
       ry="6.5582571e-017"
       transform="matrix(0.36587255,0,0,0.85409336,-461.80223,55.755429)"
       class="Box" />
    <rect
       style="fill:#bdc3c7;fill-opacity:1"
       id="rect3931-1-2-6-2-0-0"
       width="163.13963"
       height="7.5761442"
       x="-0.50507629"
       y="364.13959"
       ry="6.5582571e-017"
       transform="matrix(0.48051477,0,0,0.85409336,-539.01844,74.326858)"
       class="Box" />
    <rect
       style="fill:#bdc3c7;fill-opacity:1"
       id="rect3931-1-2-6-2-0-61"
       width="163.13963"
       height="7.5761442"
       x="-0.50507629"
       y="364.13959"
       ry="6.5582571e-017"
       transform="matrix(0.80600095,0,0,0.85409336,-670.15135,27.898286)"
       class="Box" />
    <rect
       style="fill:#bdc3c7;fill-opacity:1"
       id="rect3931-1-2-6-2-0-8"
       width="163.13963"
       height="7.5761442"
       x="-0.50507629"
       y="364.13959"
       ry="6.5582571e-017"
       transform="matrix(0.48886368,0,0,0.85409336,74.331322,29.684)"
       class="Box" />
    <rect
       style="fill:#bdc3c7;fill-opacity:1"
       id="rect3931-1-2-6-2-0-9"
       width="163.13963"
       height="7.5761442"
       x="-0.50507629"
       y="364.13959"
       ry="6.5582571e-017"
       transform="matrix(0.1513324,0,0,0.85409336,48.089419,-8.5302857)"
       class="Box" />
    <rect
       style="fill:#bdc3c7;fill-opacity:1"
       id="rect3931-1-2-6-8"
       width="163.13963"
       height="7.5761442"
       x="-0.50507629"
       y="364.13959"
       ry="6.5582571e-017"
       transform="matrix(0.27502132,0,0,0.85409336,389.9376,45.041143)"
       class="Box" />
    <rect
       style="fill:#bdc3c7;fill-opacity:1"
       id="rect3931-1-2-6-4"
       width="163.13963"
       height="7.5761442"
       x="-0.50507629"
       y="364.13959"
       ry="6.5582571e-017"
       transform="matrix(0.79714197,0,0,0.99551471,435.37989,22.115458)"
       class="Box" />
    <rect
       style="fill:#bdc3c7;fill-opacity:1"
       id="rect3931-1-2-6-4-1"
       width="163.13963"
       height="7.5761442"
       x="-0.50507629"
       y="364.13959"
       ry="6.5582571e-017"
       transform="matrix(0.37353465,0,0,0.85409336,565.16594,61.469715)"
       class="Box" />
    <rect
       style="fill:#bdc3c7;fill-opacity:1"
       id="rect3931-1-2-6-4-4"
       width="163.13963"
       height="7.5761442"
       x="-0.50507629"
       y="364.13959"
       ry="6.5582571e-017"
       transform="matrix(0.61981798,0,0,0.85409336,625.64747,23.612571)"
       class="Box" />
    <rect
       style="fill:#bdc3c7;fill-opacity:1"
       id="rect3931-1-2-6-4-3"
       width="163.13963"
       height="7.5761442"
       x="-0.50507629"
       y="364.13959"
       ry="6.5582571e-017"
       transform="matrix(0.7774393,0,0,0.85409336,726.97708,-44.958858)"
       class="Box" />
    <rect
       style="fill:#bdc3c7;fill-opacity:1"
       id="rect3931-1-2-6-4-9"
       width="163.13963"
       height="7.5761442"
       x="-0.50507629"
       y="364.13959"
       ry="6.5582571e-017"
       transform="matrix(0.51254791,0,0,0.85409336,569.34329,-103.17314)"
       class="Box" />
    <rect
       style="fill:#bdc3c7;fill-opacity:1"
       id="rect3931-1-2-6-4-9-8"
       width="163.13963"
       height="7.5761442"
       x="-0.50507629"
       y="364.13959"
       ry="6.5582571e-017"
       transform="matrix(0.5869802,0,0,0.85409336,473.48803,-126.74457)"
       class="Box" />
    <rect
       style="fill:#bdc3c7;fill-opacity:1"
       id="rect3931-1-2-6-4-9-80"
       width="163.13963"
       height="7.5761442"
       x="-0.50507629"
       y="364.13959"
       ry="6.5582571e-017"
       transform="matrix(0.3527374,0,0,0.85409336,625.51257,-180.31601)"
       class="Box" />
    <rect
       style="fill:#bdc3c7;fill-opacity:1"
       id="rect3931-1-2-6-4-9-87"
       width="163.13963"
       height="7.5761442"
       x="-0.50507629"
       y="364.13959"
       ry="6.5582571e-017"
       transform="matrix(0.66798005,0,0,0.85409336,682.45752,-214.51941)"
       class="Box" />
    <rect
       style="fill:#bdc3c7;fill-opacity:1"
       id="rect3931-1-2-6-4-9-83"
       width="163.13963"
       height="7.5761442"
       x="-0.50507629"
       y="364.13959"
       ry="6.5582571e-017"
       transform="matrix(0.28925103,0,0,0.85409336,155.12337,5.5768572)"
       class="Box" />
    <rect
       class="Box"
       transform="matrix(0.7774393,0,0,0.85409336,726.97708,-44.958858)"
       ry="6.5582571e-017"
       y="364.13959"
       x="-0.50507629"
       height="7.5761442"
       width="163.13963"
       id="rect6795"
       style="fill:#bdc3c7;fill-opacity:1" />
    <rect
       style="fill:#7f8c8d;fill-opacity:1"
       id="rect3931-1-2-6-2-8"
       width="163.13963"
       height="7.5761442"
       x="-0.50507629"
       y="364.13959"
       ry="6.5582571e-017"
       transform="matrix(0.86399319,0,0,1.9874267,-146.70446,-599.76127)"
       class="Box" />
    <rect
       style="fill:#7f8c8d;fill-opacity:1"
       id="rect3931-1-2-6-2-8-3"
       width="163.13963"
       height="7.5761442"
       x="-0.50507629"
       y="364.13959"
       ry="6.5582571e-017"
       transform="matrix(0.63489102,0,0,1.9874267,-5.5053341,-639.83087)"
       class="Box" />
    <rect
       style="fill:#7f8c8d;fill-opacity:1"
       id="rect3931-1-2-6-2-8-7"
       width="163.13963"
       height="7.5761442"
       x="-0.50507629"
       y="364.13959"
       ry="6.5582571e-017"
       transform="matrix(0.50331207,0,0,1.9874267,98.221383,-677.71158)"
       class="Box" />
    <rect
       style="fill:#7f8c8d;fill-opacity:1"
       id="rect3931-1-2-6-2-8-1"
       width="163.13963"
       height="7.5761442"
       x="-0.50507629"
       y="364.13959"
       ry="6.5582571e-017"
       transform="matrix(0.85780124,0,0,1.9874267,180.22278,-609.0212)"
       class="Box" />
    <rect
       style="fill:#7f8c8d;fill-opacity:1"
       id="rect3931-1-2-6-2-8-0"
       width="163.13963"
       height="7.5761442"
       x="-0.50507629"
       y="364.13959"
       ry="6.5582571e-017"
       transform="matrix(0.33767739,0,0,1.9874267,319.86621,-659.78138)"
       class="Box" />
    <rect
       style="fill:#7f8c8d;fill-opacity:1"
       id="rect3931-1-2-6-2-8-73"
       width="163.13963"
       height="7.5761442"
       x="-0.50507629"
       y="364.13959"
       ry="6.5582571e-017"
       transform="matrix(2.9259127,0,0,1.9874267,376.73186,-713.82453)"
       class="Box" />
    <rect
       style="fill:#7f8c8d;fill-opacity:1"
       id="rect3931-1-2-6-2-8-4"
       width="163.13963"
       height="7.5761442"
       x="-0.50507629"
       y="364.13959"
       ry="6.5582571e-017"
       transform="matrix(1.4320867,0,0,1.9874267,-380.08991,-713.54136)"
       class="Box" />
    <rect
       style="fill:#7f8c8d;fill-opacity:1"
       id="rect3931-1-2-6-2-8-9"
       width="163.13963"
       height="7.5761442"
       x="-0.50507629"
       y="364.13959"
       ry="6.5582571e-017"
       transform="matrix(0.43162913,0,0,1.9874267,-450.79348,-636.05069)"
       class="Box" />
    <rect
       style="fill:#7f8c8d;fill-opacity:1"
       id="rect3931-1-2-6-2-8-6"
       width="163.13963"
       height="7.5761442"
       x="-0.50507629"
       y="364.13959"
       ry="6.5582571e-017"
       transform="matrix(0.83991215,0,0,1.9874267,-587.55154,-549.62212)"
       class="Box" />
    <rect
       style="fill:#7f8c8d;fill-opacity:1"
       id="rect3931-1-2-6-2-8-5"
       width="163.13963"
       height="7.5761442"
       x="-0.50507629"
       y="364.13959"
       ry="6.5582571e-017"
       transform="matrix(0.4940209,0,0,1.9874267,-668.08339,-618.37212)"
       class="Box" />
    <rect
       style="fill:#bdc3c7;fill-opacity:1"
       id="rect3931-1-2-6-2-86"
       width="163.13963"
       height="7.5761442"
       x="-0.50507629"
       y="364.13959"
       ry="6.5582571e-017"
       transform="matrix(0.55152887,0,0,0.85409336,-51.022997,-54.150699)"
       class="Box" />
    <rect
       style="fill:#bdc3c7;fill-opacity:1"
       id="rect3931-1-2-6-25"
       width="163.13963"
       height="7.5761442"
       x="-0.50507629"
       y="364.13959"
       ry="6.5582571e-017"
       transform="matrix(0.66772326,0,0,0.85409336,232.75451,-42.533945)"
       class="Box" />
    <rect
       style="fill:#bdc3c7;fill-opacity:1"
       id="rect3931-1-2-6-25-8"
       width="163.13963"
       height="7.5761442"
       x="-0.50507629"
       y="364.13959"
       ry="6.5582571e-017"
       transform="matrix(0.29620622,0,0,0.85409336,341.66334,-27.381656)"
       class="Box" />
    <rect
       style="fill:#bdc3c7;fill-opacity:1"
       id="rect3931-1-2-6-2-0-6-5"
       width="163.13963"
       height="7.5761442"
       x="-0.50507629"
       y="364.13959"
       ry="6.5582571e-017"
       transform="matrix(0.55416458,0,0,0.85409336,-402.51722,-10.209063)"
       class="Box" />
  </g>
  <g
     inkscape:groupmode="layer"
     id="spawners"
     inkscape:label="SpawnPoints">
    <rect
       style="fill:#f01f19;fill-opacity:1"
       id="rect4306"
       width="95.964493"
       height="94.954338"
       x="36.36549"
       y="269.69031"
       ry="4.0782439e-017"
       transform="matrix(0.5437239,0,0,0.06266753,-414.35635,275.8637)"
       class="Spawn"
       only="0" />
    <rect
       style="fill:#f01f19;fill-opacity:1"
       id="rect4306-1"
       width="95.964493"
       height="94.954338"
       x="36.36549"
       y="269.69031"
       ry="4.0782439e-017"
       transform="matrix(0.5437239,0,0,0.06266753,-279.96474,325.57566)"
       class="Spawn"
       only="0" />
    <rect
       style="fill:#f01f19;fill-opacity:1"
       id="rect4306-9"
       width="95.964493"
       height="94.954338"
       x="36.36549"
       y="269.69031"
       ry="4.0782439e-017"
       transform="matrix(0.61815617,0,0,0.06266753,-687.99179,315.41977)"
       class="Spawn"
       only="0" />
    <rect
       style="fill:#f01f19;fill-opacity:1"
       id="rect4306-8"
       width="95.964493"
       height="94.954338"
       x="36.36549"
       y="269.69031"
       ry="4.0782439e-017"
       transform="matrix(0.5437239,0,0,0.06266753,-48.626215,233.964)"
       class="Spawn"
       only="0" />
    <rect
       style="fill:#f01f19;fill-opacity:1"
       id="rect4306-2"
       width="95.964493"
       height="94.954338"
       x="36.36549"
       y="269.69031"
       ry="4.0782439e-017"
       transform="matrix(0.5437239,0,0,0.06266753,459.85241,160.1239)"
       class="Spawn"
       only="0" />
    <rect
       style="fill:#f01f19;fill-opacity:1"
       id="rect4306-6"
       width="95.964493"
       height="94.954338"
       x="36.36549"
       y="269.69031"
       ry="4.0782439e-017"
       transform="matrix(0.5437239,0,0,0.06266753,624.13812,307.26675)"
       class="Spawn"
       only="0" />
    <rect
       style="fill:#f01f19;fill-opacity:1"
       id="rect4306-60"
       width="95.964493"
       height="94.954338"
       x="36.36549"
       y="269.69031"
       ry="4.0782439e-017"
       transform="matrix(0.5437239,0,0,0.06266753,688.59716,72.532887)"
       class="Spawn"
       only="0" />
    <rect
       style="fill:#f01f19;fill-opacity:1"
       id="rect4306-3"
       width="95.964493"
       height="94.954338"
       x="36.36549"
       y="269.69031"
       ry="4.0782439e-017"
       transform="matrix(0.29065411,0,0,-0.0727359,146.19828,335.21233)"
       class="Spawn"
       only="0" />
    <rect
       style="fill:#f01f19;fill-opacity:1"
       id="rect4306-6-8"
       width="95.964493"
       height="94.954338"
       x="36.36549"
       y="269.69031"
       ry="4.0782439e-017"
       transform="matrix(0.5437239,0,0,0.06266753,732.70955,237.26675)"
       class="Spawn"
       only="0" />
    <rect
       style="fill:#f01f19;fill-opacity:1"
       id="rect4306-6-3"
       width="95.964493"
       height="94.954338"
       x="36.36549"
       y="269.69031"
       ry="4.0782439e-017"
       transform="matrix(0.5437239,0,0,0.06266753,606.99527,107.26675)"
       class="Spawn"
       only="0" />
    <rect
       style="fill:#f01f19;fill-opacity:1"
       id="rect4306-6-5"
       width="95.964493"
       height="94.954338"
       x="36.36549"
       y="269.69031"
       ry="4.0782439e-017"
       transform="matrix(0.43951869,0,0,0.07771236,-603.44406,309.93374)"
       class="Spawn"
       only="0" />
    <rect
       style="fill:#f01f19;fill-opacity:1"
       id="rect4306-6-1"
       width="95.964493"
       height="94.954338"
       x="36.36549"
       y="269.69031"
       ry="4.0782439e-017"
       transform="matrix(0.5437239,0,0,0.06266753,-478.71902,342.98104)"
       class="Spawn"
       only="0" />
    <rect
       style="fill:#f01f19;fill-opacity:1"
       id="rect4306-8-6"
       width="95.964493"
       height="94.954338"
       x="36.36549"
       y="269.69031"
       ry="4.0782439e-017"
       transform="matrix(0.5437239,0,0,0.06266753,-154.95836,246.78376)"
       class="Spawn"
       only="0" />
    <rect
       style="fill:#f01f19;fill-opacity:1"
       id="rect4306-6-5-3"
       width="95.964493"
       height="94.954338"
       x="36.36549"
       y="269.69031"
       ry="4.0782439e-017"
       transform="matrix(0.43951869,0,0,0.07771236,-542.14868,355.14912)"
       class="Spawn"
       only="0" />
  </g>
</svg>
